<svg xmlns="http://www.w3.org/2000/svg" width="400" height="238" viewBox="0 0 400 238" role="img" aria-label="Top Languages">
  <defs>
    <linearGradient id="bg" x1="0" y1="0" x2="1" y2="1">
      <stop offset="0%" stop-color="#0d1117"/>
      <stop offset="100%" stop-color="#161b22"/>
    </linearGradient>
  </defs>
  <rect width="400" height="238" rx="12" fill="url(#bg)" stroke="#30363d" stroke-width="1"/>
  <text x="22" y="34" fill="#58a6ff" font-family="Segoe UI, Ubuntu, Sans-Serif" font-size="16" font-weight="700">Top Languages</text>
  
    <text x="22" y="62" fill="#c9d1d9" font-family="Segoe UI, Ubuntu, Sans-Serif" font-size="13">Java</text>
    <rect x="130" y="51" width="220" height="12" rx="6" fill="#21262d"/>
    <rect x="130" y="51" width="220" height="12" rx="6" fill="#b07219"/>
    <text x="360" y="62" fill="#8b949e" font-family="Segoe UI, Ubuntu, Sans-Serif" font-size="12">10</text>


    <text x="22" y="90" fill="#c9d1d9" font-family="Segoe UI, Ubuntu, Sans-Serif" font-size="13">Jupyter Notebook</text>
    <rect x="130" y="79" width="220" height="12" rx="6" fill="#21262d"/>
    <rect x="130" y="79" width="110" height="12" rx="6" fill="#DA5B0B"/>
    <text x="360" y="90" fill="#8b949e" font-family="Segoe UI, Ubuntu, Sans-Serif" font-size="12">5</text>


    <text x="22" y="118" fill="#c9d1d9" font-family="Segoe UI, Ubuntu, Sans-Serif" font-size="13">Python</text>
    <rect x="130" y="107" width="220" height="12" rx="6" fill="#21262d"/>
    <rect x="130" y="107" width="88" height="12" rx="6" fill="#3572A5"/>
    <text x="360" y="118" fill="#8b949e" font-family="Segoe UI, Ubuntu, Sans-Serif" font-size="12">4</text>


    <text x="22" y="146" fill="#c9d1d9" font-family="Segoe UI, Ubuntu, Sans-Serif" font-size="13">HTML</text>
    <rect x="130" y="135" width="220" height="12" rx="6" fill="#21262d"/>
    <rect x="130" y="135" width="66" height="12" rx="6" fill="#e34c26"/>
    <text x="360" y="146" fill="#8b949e" font-family="Segoe UI, Ubuntu, Sans-Serif" font-size="12">3</text>


    <text x="22" y="174" fill="#c9d1d9" font-family="Segoe UI, Ubuntu, Sans-Serif" font-size="13">CSS</text>
    <rect x="130" y="163" width="220" height="12" rx="6" fill="#21262d"/>
    <rect x="130" y="163" width="22" height="12" rx="6" fill="#663399"/>
    <text x="360" y="174" fill="#8b949e" font-family="Segoe UI, Ubuntu, Sans-Serif" font-size="12">1</text>


    <text x="22" y="202" fill="#c9d1d9" font-family="Segoe UI, Ubuntu, Sans-Serif" font-size="13">C++</text>
    <rect x="130" y="191" width="220" height="12" rx="6" fill="#21262d"/>
    <rect x="130" y="191" width="22" height="12" rx="6" fill="#f34b7d"/>
    <text x="360" y="202" fill="#8b949e" font-family="Segoe UI, Ubuntu, Sans-Serif" font-size="12">1</text>

</svg>
