<svg xmlns="http://www.w3.org/2000/svg" width="121" height="36" viewBox="0 0 121 36" role="img" aria-label="LinkedIn">
  <rect width="121" height="36" rx="18.0" ry="18.0" fill="#0A66C2"/>
  <g transform="translate(16,8.0) scale(0.83)">
    <path fill="#ffffff" d="M6.94 8.5H3.75V20h3.19V8.5zM5.34 7.1a1.85 1.85 0 1 0 0-3.7 1.85 1.85 0 0 0 0 3.7zM20.25 20h-3.18v-5.6c0-1.34-.02-3.05-1.86-3.05-1.86 0-2.15 1.45-2.15 2.95V20H9.88V8.5h3.05v1.57h.04c.43-.8 1.47-1.65 3.02-1.65 3.23 0 3.83 2.13 3.83 4.9V20z"/>
  </g>
  <text x="46" y="23.0" fill="#ffffff" font-family="Segoe UI, Helvetica, Arial, sans-serif" font-size="13" font-weight="600">LinkedIn</text>
</svg>
